<svg viewBox="0 0 182.000000 182.000000" preserveAspectRatio="xMidYMid meet">
<circle
cx='91'
cy='91'
r='91'
fill='#FFFFFF'
stroke='none'
ref={(circle) => { this.circle = circle }} >
</circle>
<g transform="translate(6.000000,130.000000) scale(0.0900000,-0.0900000)"
fill="#000000" stroke="none">
<path d="M132 737 l-42 -43 0 -247 0 -248 40 -60 41 -59 137 0 138 0 42 43 42
43 0 247 0 248 -40 60 -41 59 -137 0 -138 0 -42 -43z m301 -56 c15 -25 17 -60
17 -261 0 -140 -4 -239 -10 -251 -10 -17 -22 -19 -123 -19 l-113 0 -17 29
c-15 25 -17 60 -17 268 0 173 3 242 12 251 8 8 50 12 123 12 l111 0 17 -29z"/>
<path d="M700 430 l0 -350 180 0 c175 0 181 1 220 25 l40 25 0 110 0 110 -46
70 c-31 47 -53 70 -66 70 -15 0 -6 15 41 66 55 61 61 71 61 111 0 28 -8 55
-22 78 l-23 35 -192 0 -193 0 0 -350z m350 242 c0 -33 -8 -45 -73 -110 l-72
-72 -63 0 -62 0 0 110 0 110 135 0 135 0 0 -38z m-16 -286 c24 -32 26 -42 26
-135 l0 -101 -140 0 -140 0 0 135 0 135 114 0 114 0 26 -34z"/>
<path d="M1372 697 l-82 -82 0 -268 0 -267 40 0 40 0 0 160 0 160 140 0 140 0
0 -160 0 -160 40 0 40 0 0 350 0 350 -138 0 -137 0 -83 -83z m278 -107 l0
-120 -140 0 -140 0 0 62 0 62 57 58 57 58 83 0 83 0 0 -120z"/>
</g>
</svg>